<mxfile host="65bd71144e">
    <diagram id="Kc_sPxgIc09RA90O9PTr" name="Page-1">
        <mxGraphModel dx="944" dy="706" grid="1" gridSize="10" guides="1" tooltips="1" connect="1" arrows="1" fold="1" page="1" pageScale="1" pageWidth="850" pageHeight="1100" math="0" shadow="0">
            <root>
                <mxCell id="0"/>
                <mxCell id="1" parent="0"/>
                <mxCell id="4" value="" style="rounded=1;whiteSpace=wrap;html=1;strokeColor=none;fillColor=#FFFFFF;opacity=50;shadow=1;" vertex="1" parent="1">
                    <mxGeometry x="250" y="190" width="370" height="260" as="geometry"/>
                </mxCell>
                <mxCell id="2" value="&lt;font face=&quot;Telex&quot; data-font-src=&quot;https://fonts.googleapis.com/css?family=Telex&quot;&gt;&lt;b&gt;&lt;span style=&quot;font-size: 150px&quot;&gt;ME&lt;/span&gt;&lt;font style=&quot;font-size: 17px&quot;&gt; &lt;/font&gt;&lt;span style=&quot;font-size: 150px&quot;&gt;T&lt;/span&gt;&lt;/b&gt;&lt;br&gt;&lt;br&gt;&lt;/font&gt;" style="text;html=1;strokeColor=none;align=center;verticalAlign=middle;whiteSpace=wrap;rounded=0;" parent="1" vertex="1">
                    <mxGeometry x="270" y="200" width="330" height="170" as="geometry"/>
                </mxCell>
                <mxCell id="3" value="&lt;span style=&quot;font-family: &amp;#34;telex&amp;#34; ; font-style: normal ; font-weight: 400 ; letter-spacing: normal ; text-indent: 0px ; text-transform: none ; word-spacing: 0px ; display: inline ; float: none ; background-color: rgb(255 , 255 , 255)&quot;&gt;&lt;font style=&quot;font-size: 80px&quot; color=&quot;#e98b2e&quot;&gt;config&lt;/font&gt;&lt;/span&gt;" style="text;whiteSpace=wrap;html=1;align=center;" vertex="1" parent="1">
                    <mxGeometry x="275" y="330" width="320" height="120" as="geometry"/>
                </mxCell>
            </root>
        </mxGraphModel>
    </diagram>
</mxfile>
